# xmcd CD database file
#
# Track frame offsets:
#	150
#	33697
#	68084
#	98099
#	131143
#	154185
#	183487
#	204274
#	233641
#	262083
#	284960
#
# Disc length: 4122 seconds
#
# Revision: 0
# Processed by: cddbd v1.5.2PL0 Copyright (c) Steve Scherf et al.
# Submitted via: CDex 1.51
#
DISCID=a610180b
DTITLE=RUBÉN BLADES - DE PANAMÁ PARA EL MUNDO
DYEAR=1995
DGENRE=Salsa
TTITLE0=PEDRO NAVAJAS
TTITLE1=SORPRESAS
TTITLE2=PLÁSTICO
TTITLE3=MAESTRA VIDA
TTITLE4=DICISIONES
TTITLE5=TE ESTÁN BUSCANDO
TTITLE6=GANAS
TTITLE7=DESAPARICIONES
TTITLE8=JUAN PACHANGA
TTITLE9=PLANTACIÓN ADENTRO
TTITLE10=SIEMBRA
EXTD=YEAR: 1995
EXTT0=
EXTT1=
EXTT2=
EXTT3=
EXTT4=
EXTT5=
EXTT6=
EXTT7=
EXTT8=
EXTT9=
EXTT10=
PLAYORDER=
